{"title":"Madagascar.3.Europe's.Most.Wanted.2012.Cam.XviD.Feel-Free","uid":7348586,"size":1156778821,"categoryP":"video","categoryS":"movies","magnet":"?xt=urn:btih:9f918e9d009ec67a87252fcc78105ca3e1fc7f35&amp;dn=Madagascar.3.Europe%27s.Most.Wanted.2012.Cam.XviD.Feel-Free&amp;tr=udp%3A%2F%2Ftracker.openbittorrent.com%3A80&amp;tr=udp%3A%2F%2Fopen.demonii.com%3A1337&amp;tr=udp%3A%2F%2Ftracker.coppersurfer.tk%3A6969&amp;tr=udp%3A%2F%2Fexodus.desync.com%3A6969","seeders":2,"leechers":0,"uploader":"hiest","files":-1,"time":1339515462,"description":"8888888888                888      8888888888                       \n888                       888      888                              \n888                       888      888                              \n8888888  .d88b.   .d88b.  888      8888888 888d888 .d88b.   .d88b.  \n888     d8P  Y8b d8P  Y8b 888      888     888P&quot;  d8P  Y8b d8P  Y8b \n888     88888888 88888888 888      888     888    88888888 88888888 \n888     Y8b.     Y8b.     888      888     888    Y8b.     Y8b.     \n888      &quot;Y8888   &quot;Y8888  888      888     888     &quot;Y8888   &quot;Y8888  \n\n\nGenre:Animation | Adventure | Comedy\nLanguage:English\nIMDb: &lt;a href=&quot;\nhttp://www.imdb.com/title/tt1277953&quot; rel=&quot;nofollow&quot; target=&quot;_NEW&quot;&gt;\nhttp://www.imdb.com/title/tt1277953&lt;/a&gt;\nSource:ELEKTRI4KA/26k Thanks!\nEncoder:Tony\n\nFormat : AVI\nFormat/Info : Audio Video Interleave\nFile size : 1.08 GiB\nDuration : 1h 21mn\nOverall bit rate : 1 897 Kbps\n\nVideo\nFormat : MPEG-4 Visual\nFormat profile : Advanced Simple@L5\nFormat settings, BVOP : 1\nFormat settings, QPel : No\nFormat settings, GMC : No warppoints\nFormat settings, Matrix : Default (H.263)\nCodec ID : XVID\nDuration : 1h 21mn\nBit rate : 1 695 Kbps\nWidth : 640 pixels\nHeight : 352 pixels\nDisplay aspect ratio : 16:9\nFrame rate : 25.000 fps\nColor space : YUV\nChroma subsampling : 4:2:0\nBit depth : 8 bits\nScan type : Progressive\nCompression mode : Lossy\nBits/(Pixel*Frame) : 0.301\nStream size : 984 MiB (89%)\nWriting library : XviD 1.2.1 (UTC 2008-12-04)\n\nAudio\nFormat : AC-3\nFormat/Info : Audio Coding 3\nMode extension : CM (complete main)\nFormat settings, Endianness : Big\nDuration : 1h 21mn\nBit rate mode : Constant\nBit rate : 192 Kbps\nChannel(s) : 2 channels\nChannel positions : Front: L R\nSampling rate : 48.0 KHz\nBit depth : 16 bits\nCompression mode : Lossy\nStream size : 111 MiB (10%)\nAlignment : Aligned on interleaves\nInterleave, duration : 40 ms (1.00 video frame)\nInterleave, preload duration : 512 ms\n\n\nPlot:\nAlex, Marty, Gloria and Melman are still fighting to get home to their beloved Big Apple. Their journey takes them through Europe where they find the perfect cover: a traveling circus, which they reinvent - Madagascar style.\n\nScreen Shots:\n                    &lt;a href=&quot;\nhttp://img109.imageshack.us/img109/9036/vlcsnap2012061120h06m09.png&quot; rel=&quot;nofollow&quot; target=&quot;_NEW&quot;&gt;\nhttp://img109.imageshack.us/img109/9036/vlcsnap2012061120h06m09.png&lt;/a&gt;\n &lt;a href=&quot;\nhttp://img100.imageshack.us/img100/3619/vlcsnap2012061120h07m03.png&quot; rel=&quot;nofollow&quot; target=&quot;_NEW&quot;&gt;\nhttp://img100.imageshack.us/img100/3619/vlcsnap2012061120h07m03.png&lt;/a&gt;\n &lt;a href=&quot;\nhttp://img12.imageshack.us/img12/5015/vlcsnap2012061120h05m35.png&quot; rel=&quot;nofollow&quot; target=&quot;_NEW&quot;&gt;\nhttp://img12.imageshack.us/img12/5015/vlcsnap2012061120h05m35.png&lt;/a&gt;\n &lt;a href=&quot;\nhttp://img819.imageshack.us/img819/9692/vlcsnap2012061120h05m52.png&quot; rel=&quot;nofollow&quot; target=&quot;_NEW&quot;&gt;\nhttp://img819.imageshack.us/img819/9692/vlcsnap2012061120h05m52.png&lt;/a&gt;\n\n\n8888888888                888      8888888888                       \n888                       888      888                              \n888                       888      888                              \n8888888  .d88b.   .d88b.  888      8888888 888d888 .d88b.   .d88b.  \n888     d8P  Y8b d8P  Y8b 888      888     888P&quot;  d8P  Y8b d8P  Y8b \n888     88888888 88888888 888      888     888    88888888 88888888 \n888     Y8b.     Y8b.     888      888     888    Y8b.     Y8b.     \n888      &quot;Y8888   &quot;Y8888  888      888     888     &quot;Y8888   &quot;Y8888  ","torrent":{"xt":"urn:btih:9f918e9d009ec67a87252fcc78105ca3e1fc7f35","amp;dn":"Madagascar.3.Europe%27s.Most.Wanted.2012.Cam.XviD.Feel-Free","amp;tr":["udp%3A%2F%2Ftracker.openbittorrent.com%3A80","udp%3A%2F%2Fopen.demonii.com%3A1337","udp%3A%2F%2Ftracker.coppersurfer.tk%3A6969","udp%3A%2F%2Fexodus.desync.com%3A6969"],"infoHash":"9f918e9d009ec67a87252fcc78105ca3e1fc7f35","infoHashBuffer":{"type":"Buffer","data":[159,145,142,157,0,158,198,122,135,37,47,204,120,16,92,163,225,252,127,53]},"announce":[],"urlList":[]}}